# xmcd CD database file
#
# Track frame offsets:
#	150
#	28458
#	46615
#	63450
#	88030
#	115566
#	133592
#	153213
#	172850
#	208748
#	224801
#	245227
#	253322
#	268206
#
# Disc length: 3753 seconds
#
# Revision: 0
# Processed by: cddbd v1.4PL0 Copyright (c) Steve Scherf et al.
# Submitted via: CDex 1.50beta9
#
DISCID=d40ea70e
DTITLE=Karl Jenkins - Adiemus IV - The Eternal Knot
DYEAR=1900
DGENRE=New Age
TTITLE0=Cú Chullain
TTITLE1=The Eternal Knot
TTITLE2=Palace Of The Crystal Bridge
TTITLE3=The Wooing Of ÉtaÍn
TTITLE4=King Of The Sacred Grove
TTITLE5=Saint Declan's Drone
TTITLE6=Salm O "Dewi Sant"
TTITLE7=Connla's Well
TTITLE8=The Dagda
TTITLE9=Children Of Dannu
TTITLE10=Ceridwen's Curse
TTITLE11=Hermit Of The Sea Rock
TTITLE12=Isle Of The Mystic Lake
TTITLE13=Math Was A Wizard
EXTD=
EXTT0=
EXTT1=
EXTT2=
EXTT3=
EXTT4=
EXTT5=
EXTT6=
EXTT7=
EXTT8=
EXTT9=
EXTT10=
EXTT11=
EXTT12=
EXTT13=
PLAYORDER=
